<?xml version="1.0" encoding="UTF-8" standalone="no"?>
<!-- Created with Inkscape (http://www.inkscape.org/) -->
<svg
   xmlns:svg="http://www.w3.org/2000/svg"
   xmlns="http://www.w3.org/2000/svg"
   version="1.0"
   width="881.22046"
   height="389.76376"
   id="svg2657">
  <defs
     id="defs2659" />
  <path
     d="M 267.05711,198.49018 C 267.05711,203.94547 263.47621,206.09275 260.62101,206.09275 C 256.84861,206.09275 255.02631,203.42313 255.02631,199.46518 L 255.02631,176.71556 L 249.69881,176.71556 L 249.69881,201.74013 C 249.69881,207.32309 252.82111,210.18998 258.54331,210.18998 C 261.97881,210.18998 265.10111,208.55924 266.85981,205.57625 L 267.05711,205.57625 L 267.05711,209.5342 L 272.70951,209.5342 C 272.51221,207.25925 272.38471,204.98427 272.38471,202.71513 L 272.38471,176.71556 L 267.05711,176.71556 L 267.05711,198.49018 z "
     style="fill:#000000;fill-rule:nonzero;stroke:none"
     id="path7461" />
  <path
     d="M 305.14811,209.53478 L 305.14811,186.78516 C 305.14811,180.28527 303.38941,176.06032 296.37341,176.06032 C 292.14241,176.06032 289.67601,177.23264 287.59831,180.93524 L 287.34291,180.93524 L 287.34291,176.71615 L 281.68471,176.71615 C 281.87611,178.99109 282.00361,181.26027 282.00361,183.54102 L 282.00361,209.53478 L 287.34291,209.53478 L 287.34291,190.09894 C 287.34291,185.61866 288.18441,180.41294 294.03451,180.41294 C 298.57861,180.41294 299.81471,183.27987 299.81471,186.78516 L 299.81471,209.53478 L 305.14811,209.53478 z "
     style="fill:#000000;fill-rule:nonzero;stroke:none"
     id="path7465" />
  <path
     d="M 331.33971,191.79239 C 331.33971,198.41999 331.33971,205.83682 325.36211,205.83682 C 318.67091,205.83682 318.67091,198.68114 318.67091,193.74239 C 318.67091,184.96751 319.45431,180.41758 325.17071,180.41758 C 331.07841,180.41758 331.33971,187.43981 331.33971,191.79239 z M 331.33971,180.02876 L 331.14821,180.02876 C 329.32601,177.42878 327.05101,176.065 323.93451,176.065 C 313.33751,176.065 313.08211,185.48404 313.08211,193.67855 C 313.08211,208.11177 318.40971,210.18944 323.67321,210.18944 C 327.12081,210.18944 329.39001,208.69213 331.20641,205.63369 L 331.33971,205.63369 L 331.33971,209.53361 L 336.67311,209.53361 L 336.67311,162.60671 L 331.33971,162.60671 L 331.33971,180.02876 z "
     style="fill:#000000;fill-rule:evenodd;stroke:none"
     id="path7469" />
  <path
     d="M 366.04631,167.80432 L 375.08231,167.80432 C 379.69621,167.80432 381.38471,171.58238 381.38471,174.95999 C 381.38471,179.05146 379.30711,182.75406 375.01251,182.75406 L 366.04631,182.75406 L 366.04631,167.80432 z M 373.06271,187.95978 C 375.08231,187.95978 379.69621,188.21516 380.14861,193.93737 C 380.67111,200.17611 380.27651,206.28718 381.97121,209.53712 L 388.20971,209.53712 C 387.30461,206.61216 386.64871,199.27075 386.58471,197.25696 C 386.26581,187.83211 384.30981,186.00982 378.91831,185.16253 L 378.91831,185.02905 C 384.44311,184.05986 387.49611,179.83491 387.49611,174.30421 C 387.49611,168.4601 384.57101,162.61018 376.24871,162.61018 L 360.06871,162.61018 L 360.06871,209.53712 L 366.04631,209.53712 L 366.04631,187.95978 L 373.06271,187.95978 z "
     style="fill:#000000;fill-rule:evenodd;stroke:none"
     id="path7473" />
  <path
     d="M 400.62231,190.81856 C 400.68041,181.71874 403.48341,180.09376 406.85531,180.09376 C 410.76101,180.09376 413.42481,181.26027 413.42481,190.81856 L 400.62231,190.81856 z M 419.07721,194.84619 L 419.07721,192.05471 C 419.07721,181.19639 416.73861,176.06032 407.37741,176.06032 C 396.00831,176.06032 394.90011,183.98787 394.90011,193.61004 C 394.90011,208.10713 400.42501,210.1848 407.37741,210.1848 C 414.26631,210.1848 418.75821,206.87679 418.81631,199.59344 L 412.96621,199.59344 C 412.77481,202.90141 410.88861,205.83218 407.24991,205.83218 C 403.09461,205.83218 400.62231,204.00989 400.62231,194.84619 L 419.07721,194.84619 z "
     style="fill:#000000;fill-rule:evenodd;stroke:none"
     id="path7477" />
  <path
     d="M 443.65321,193.22356 C 444.17571,203.81487 440.13621,205.83448 436.89221,205.83448 C 433.31751,205.83448 431.75611,202.9734 431.75611,199.78728 C 431.75611,192.82892 438.58111,193.28739 443.65321,193.22356 z M 443.78691,209.53712 L 449.63081,209.53712 C 449.24201,207.0068 448.98071,204.33722 448.98071,201.73724 L 448.98071,185.94598 C 448.98071,180.41528 446.76971,176.06266 438.31981,176.06266 C 431.36731,176.06266 427.46741,178.5988 427.20611,185.94598 L 432.99231,185.94598 C 432.66741,182.49291 434.55321,180.09606 438.12831,180.09606 C 443.84471,180.09606 443.78691,184.8375 443.65321,189.19012 C 436.17861,188.99861 426.42861,189.4455 426.42861,199.39842 C 426.42861,205.70681 428.44231,210.1871 435.39481,210.1871 C 439.49201,210.1871 442.02831,208.56212 443.65321,204.78987 L 443.78691,204.78987 L 443.78691,209.53712 z "
     style="fill:#000000;fill-rule:evenodd;stroke:none"
     id="path7481" />
  <path
     d="M 464.38781,191.1453 L 464.51571,191.1453 L 476.21541,209.53654 L 482.97641,209.53654 L 470.10451,190.82032 L 481.03211,176.71786 L 474.52651,176.71786 L 464.51571,190.88415 L 464.38781,190.88415 L 464.38781,162.60964 L 459.05441,162.60964 L 459.05441,209.53654 L 464.38781,209.53654 L 464.38781,191.1453 z "
     style="fill:#000000;fill-rule:nonzero;stroke:none"
     id="path7485" />
  <path
     d="M 484.38851,176.71615 L 484.38851,180.74374 L 489.78581,180.74374 L 489.78581,204.07954 C 489.78581,207.84597 492.06661,209.92942 497.13291,209.92942 C 498.88571,209.92942 500.64401,209.53478 502.39651,209.4013 L 502.39651,205.30984 C 501.23011,205.44332 500.38281,205.5768 499.99401,205.5768 C 495.11921,205.5768 495.11921,202.90141 495.11921,200.82378 L 495.11921,180.74374 L 502.26901,180.74374 L 502.26901,176.71615 L 495.11921,176.71615 L 495.11921,168.0051 L 489.78581,170.40776 L 489.78581,176.71615 L 484.38851,176.71615 z "
     style="fill:#000000;fill-rule:nonzero;stroke:none"
     id="path7489" />
  <path
     d="M 519.14891,205.83506 C 513.62401,205.83506 512.25451,201.99898 512.25451,191.33798 C 512.25451,182.36582 515.05751,180.41582 519.14891,180.41582 C 523.24611,180.41582 526.04361,182.36582 526.04361,191.33798 C 526.04361,201.99898 524.67371,205.83506 519.14891,205.83506 z M 519.14891,210.18768 C 526.10131,210.18768 531.63241,208.11005 531.63241,193.60715 C 531.63241,183.9908 530.52381,176.06325 519.14891,176.06325 C 507.77431,176.06325 506.66571,183.9908 506.66571,193.60715 C 506.66571,208.11005 512.19641,210.18768 519.14891,210.18768 z "
     style="fill:#000000;fill-rule:evenodd;stroke:none"
     id="path7493" />
  <path
     d="M 544.96061,176.71615 L 539.62141,176.71615 L 539.62141,209.53478 L 544.96061,209.53478 L 544.96061,190.16859 C 544.96061,185.74633 546.45181,181.26027 552.36581,181.26027 C 553.34071,181.26027 554.25201,181.46336 555.22691,181.59103 L 555.22691,176.06032 C 550.02691,176.06032 547.29331,176.6465 545.08811,181.64909 L 544.96061,181.64909 L 544.96061,176.71615 z "
     style="fill:#000000;fill-rule:nonzero;stroke:none"
     id="path7497" />
  <path
     d="M 581.83771,200.17669 C 581.83771,190.17151 565.45421,190.29918 565.45421,184.5131 C 565.45421,181.65198 567.67111,180.09665 570.53221,180.09665 C 573.91001,180.09665 575.72641,181.91313 575.66281,185.35462 L 581.58231,185.35462 C 582.03501,178.86054 577.02651,176.06325 571.17641,176.06325 C 561.94891,176.06325 559.86581,181.59395 559.86581,185.02963 C 559.86581,194.8433 576.24891,194.97679 576.24891,200.82666 C 576.24891,204.21009 573.78241,205.83506 570.59031,205.83506 C 565.19331,205.83506 565.13521,201.41284 565.13521,199.52668 L 559.08781,199.52668 C 558.89641,207.06541 563.31881,210.18768 570.39881,210.18768 C 576.90481,210.18768 581.83771,207.39039 581.83771,200.17669 z "
     style="fill:#000000;fill-rule:nonzero;stroke:none"
     id="path7501" />
  <path
     d="M 595.34181,176.71615 L 590.01421,176.71615 L 590.01421,209.53478 L 595.34181,209.53478 L 595.34181,176.71615 z M 589.68901,168.32428 L 595.67251,168.32428 L 595.67251,162.60788 L 589.68901,162.60788 L 589.68901,168.32428 z "
     style="fill:#000000;fill-rule:evenodd;stroke:none"
     id="path7505" />
  <path
     d="M 626.92521,187.2384 C 627.25051,179.89703 623.40831,176.06091 616.85041,176.06091 C 605.47591,176.06091 604.36721,183.98846 604.36721,193.61062 C 604.36721,208.10771 609.89791,210.18538 616.85041,210.18538 C 620.48951,210.18538 627.38381,207.84656 627.18651,198.61321 L 621.59191,198.61321 C 621.79501,204.52697 618.08661,205.83276 616.85041,205.83276 C 611.32561,205.83276 609.96191,201.99668 609.96191,191.33568 C 609.96191,182.36348 612.75321,180.41352 616.85041,180.41352 C 618.87001,180.41352 621.53411,181.8528 621.40041,187.2384 L 626.92521,187.2384 z "
     style="fill:#000000;fill-rule:nonzero;stroke:none"
     id="path7509" />
  <path
     d="M 658.25831,209.53478 L 658.25831,186.26286 C 658.25831,178.85761 655.14181,176.06032 649.54721,176.06032 C 645.25261,176.06032 642.78621,177.10497 640.63911,180.93524 L 640.37781,180.93524 L 640.37781,162.60788 L 635.05611,162.60788 L 635.05611,209.53478 L 640.37781,209.53478 L 640.37781,190.23242 C 640.37781,184.70753 641.74741,180.41294 647.07491,180.41294 C 651.62491,180.41294 652.92501,183.27987 652.92501,187.30746 L 652.92501,209.53478 L 658.25831,209.53478 z "
     style="fill:#000000;fill-rule:nonzero;stroke:none"
     id="path7513" />
  <path
     d="M 672.49121,190.81856 C 672.56101,181.71874 675.35231,180.09376 678.73011,180.09376 C 682.63591,180.09376 685.29381,181.26027 685.29381,190.81856 L 672.49121,190.81856 z M 690.95201,194.84619 L 690.95201,192.05471 C 690.95201,181.19639 688.61351,176.06032 679.25221,176.06032 C 667.87771,176.06032 666.77491,183.98787 666.77491,193.61004 C 666.77491,208.10713 672.29981,210.1848 679.25221,210.1848 C 686.14701,210.1848 690.63301,206.87679 690.69111,199.59344 L 684.84111,199.59344 C 684.64961,202.90141 682.76341,205.83218 679.12471,205.83218 C 674.96351,205.83218 672.49121,204.00989 672.49121,194.84619 L 690.95201,194.84619 z "
     style="fill:#000000;fill-rule:evenodd;stroke:none"
     id="path7517" />
  <path
     d="M 704.15151,176.71615 L 698.82401,176.71615 L 698.82401,209.53478 L 704.15151,209.53478 L 704.15151,190.16859 C 704.15151,185.74633 705.64891,181.26027 711.56261,181.26027 C 712.53791,181.26027 713.44291,181.46336 714.42371,181.59103 L 714.42371,176.06032 C 709.21821,176.06032 706.49051,176.6465 704.27941,181.64909 L 704.15151,181.64909 L 704.15151,176.71615 z "
     style="fill:#000000;fill-rule:nonzero;stroke:none"
     id="path7521" />
  <path
     d="M 743.36871,209.53478 L 743.36871,186.26286 C 743.36871,178.85761 740.25221,176.06032 734.66341,176.06032 C 730.37471,176.06032 727.90821,177.10497 725.75491,180.93524 L 725.49991,180.93524 L 725.49991,162.60788 L 720.17201,162.60788 L 720.17201,209.53478 L 725.49991,209.53478 L 725.49991,190.23242 C 725.49991,184.70753 726.86361,180.41294 732.19111,180.41294 C 736.74691,180.41294 738.04121,183.27987 738.04121,187.30746 L 738.04121,209.53478 L 743.36871,209.53478 z "
     style="fill:#000000;fill-rule:nonzero;stroke:none"
     id="path7525" />
  <path
     d="M 756.63841,190.81856 C 756.69651,181.71874 759.49371,180.09376 762.87691,180.09376 C 766.77681,180.09376 769.44061,181.26027 769.44061,190.81856 L 756.63841,190.81856 z M 775.09921,194.84619 L 775.09921,192.05471 C 775.09921,181.19639 772.75441,176.06032 763.39361,176.06032 C 752.01861,176.06032 750.91591,183.98787 750.91591,193.61004 C 750.91591,208.10713 756.43521,210.1848 763.39361,210.1848 C 770.28211,210.1848 774.76851,206.87679 774.83791,199.59344 L 768.98821,199.59344 C 768.78511,202.90141 766.90471,205.83218 763.26611,205.83218 C 759.10491,205.83218 756.63841,204.00989 756.63841,194.84619 L 775.09921,194.84619 z "
     style="fill:#000000;fill-rule:evenodd;stroke:none"
     id="path7529" />
  <path
     d="M 789.13591,176.71615 L 783.80841,176.71615 L 783.80841,209.53478 L 789.13591,209.53478 L 789.13591,176.71615 z M 783.48361,168.32428 L 789.46111,168.32428 L 789.46111,162.60788 L 783.48361,162.60788 L 783.48361,168.32428 z "
     style="fill:#000000;fill-rule:evenodd;stroke:none"
     id="path7533" />
  <path
     d="M 793.87501,176.71615 L 793.87501,180.74374 L 799.26651,180.74374 L 799.26651,204.07954 C 799.26651,207.84597 801.54151,209.92942 806.61361,209.92942 C 808.36651,209.92942 810.11891,209.53478 811.87761,209.4013 L 811.87761,205.30984 C 810.70501,205.44332 809.85801,205.5768 809.47511,205.5768 C 804.59991,205.5768 804.59991,202.90141 804.59991,200.82378 L 804.59991,180.74374 L 811.74971,180.74374 L 811.74971,176.71615 L 804.59991,176.71615 L 804.59991,168.0051 L 799.26651,170.40776 L 799.26651,176.71615 L 793.87501,176.71615 z "
     style="fill:#000000;fill-rule:nonzero;stroke:none"
     id="path7537" />
  <path
     d="M 247.36181,107.07441 L 247.36181,111.10203 L 252.42811,111.10203 L 252.42811,139.89308 L 257.76141,139.89308 L 257.76141,111.10203 L 264.38911,111.10203 L 264.38911,107.07441 L 257.76141,107.07441 L 257.76141,101.47987 C 257.76141,98.81606 258.73091,96.4134 264.38911,96.80226 L 264.38911,92.96614 C 263.60571,92.83847 262.95561,92.76882 261.85281,92.76882 C 257.10591,92.76882 252.42811,94.06881 252.42811,100.70218 L 252.42811,107.07441 L 247.36181,107.07441 z "
     style="fill:#000000;fill-rule:nonzero;stroke:none"
     id="path7541" />
  <path
     d="M 278.41221,94.78902 L 272.30081,94.78902 L 272.30081,101.54429 L 278.41221,101.54429 L 278.41221,94.78902 z M 289.85651,94.78902 L 283.73971,94.78902 L 283.73971,101.54429 L 289.85651,101.54429 L 289.85651,94.78902 z M 287.05941,128.84965 C 287.05941,134.3049 283.48431,136.4464 280.62321,136.4464 C 276.85671,136.4464 275.03441,133.7826 275.03441,129.82461 L 275.03441,107.07499 L 269.70101,107.07499 L 269.70101,132.09379 C 269.70101,137.68252 272.82341,140.54364 278.53971,140.54364 C 281.98691,140.54364 285.10341,138.91867 286.86211,135.92987 L 287.05941,135.92987 L 287.05941,139.89367 L 292.71181,139.89367 C 292.52031,137.61868 292.38691,135.34373 292.38691,133.06875 L 292.38691,107.07499 L 287.05941,107.07499 L 287.05941,128.84965 z "
     style="fill:#000000;fill-rule:evenodd;stroke:none"
     id="path7545" />
  <path
     d="M 307.53111,107.07441 L 302.20321,107.07441 L 302.20321,139.89308 L 307.53111,139.89308 L 307.53111,120.52685 C 307.53111,116.10462 309.02821,111.61853 314.94771,111.61853 C 315.92291,111.61853 316.82251,111.82165 317.80331,111.94932 L 317.80331,106.41862 C 312.60331,106.41862 309.86971,107.00476 307.65871,112.00735 L 307.53111,112.00735 L 307.53111,107.07441 z "
     style="fill:#000000;fill-rule:nonzero;stroke:none"
     id="path7549" />
  <path
     d="M 335.82811,122.73277 C 335.82811,135.73837 340.64521,140.86863 350.58081,140.86863 C 360.52771,140.86863 365.33891,135.73837 365.33891,122.73277 L 365.33891,92.96673 L 359.36131,92.96673 L 359.36131,122.99392 C 359.36131,133.26025 356.23901,135.86604 350.58081,135.86604 C 344.92801,135.86604 341.80571,133.26025 341.80571,122.99392 L 341.80571,92.96673 L 335.82811,92.96673 L 335.82811,122.73277 z "
     style="fill:#000000;fill-rule:nonzero;stroke:none"
     id="path7553" />
  <path
     d="M 395.92681,139.89308 L 395.92681,117.79924 C 395.92681,116.56309 396.18771,113.31315 397.74321,112.00735 C 399.17671,110.84665 399.75701,110.77124 401.77651,110.77124 C 406.06521,110.77124 406.97071,113.82964 406.97071,117.14342 L 406.97071,139.89308 L 412.30411,139.89308 L 412.30411,114.93812 C 412.30411,107.20208 406.77921,106.41862 403.33211,106.41862 C 400.34891,106.41862 397.35991,107.13243 395.53771,110.64353 C 394.30151,107.65473 390.85431,106.41862 387.87161,106.41862 C 384.03521,106.41862 381.23811,107.65473 379.68261,111.16587 L 379.54921,111.16587 L 379.54921,107.07441 L 373.89101,107.07441 C 374.08251,109.34935 374.21001,111.61853 374.21001,113.89928 L 374.21001,139.89308 L 379.54921,139.89308 L 379.54921,117.79924 C 379.54921,116.56309 379.79881,114.60732 380.77951,112.98235 C 381.55711,111.7462 383.77441,110.77124 385.39931,110.77124 C 389.68801,110.77124 390.59311,113.82964 390.59311,117.14342 L 390.59311,139.89308 L 395.92681,139.89308 z "
     style="fill:#000000;fill-rule:nonzero;stroke:none"
     id="path7557" />
  <path
     d="M 425.49191,139.89308 L 432.64751,139.89308 L 439.98881,111.94932 L 440.11671,111.94932 L 447.13901,139.89308 L 454.28881,139.89308 L 463.06351,107.07441 L 457.40531,107.07441 L 450.90511,135.34315 L 450.77761,135.34315 L 444.08061,107.07441 L 436.54751,107.07441 L 429.26431,135.34315 L 429.13061,135.34315 L 423.22281,107.07441 L 417.30331,107.07441 L 425.49191,139.89308 z "
     style="fill:#000000;fill-rule:nonzero;stroke:none"
     id="path7561" />
  <path
     d="M 472.87551,121.17686 C 472.93361,112.077 475.73071,110.45202 479.11431,110.45202 C 483.01431,110.45202 485.67801,111.61853 485.67801,121.17686 L 472.87551,121.17686 z M 491.33041,125.20445 L 491.33041,122.41301 C 491.33041,111.55469 488.99191,106.41862 479.62481,106.41862 C 468.25611,106.41862 467.15331,114.34617 467.15331,123.96834 C 467.15331,138.46542 472.67231,140.54306 479.62481,140.54306 C 486.51961,140.54306 491.01141,137.23508 491.07541,129.9517 L 485.22531,129.9517 C 485.02211,133.25971 483.14181,136.19044 479.50311,136.19044 C 475.34781,136.19044 472.87551,134.36815 472.87551,125.20445 L 491.33041,125.20445 z "
     style="fill:#000000;fill-rule:evenodd;stroke:none"
     id="path7565" />
  <path
     d="M 504.72571,92.96673 L 499.39231,92.96673 L 499.39231,139.89367 L 504.72571,139.89367 L 504.72571,92.96673 z "
     style="fill:#000000;fill-rule:nonzero;stroke:none"
     id="path7569" />
  <path
     d="M 509.58991,107.07441 L 509.58991,111.10203 L 514.98141,111.10203 L 514.98141,134.4378 C 514.98141,138.20427 517.26231,140.28771 522.32851,140.28771 C 524.08721,140.28771 525.83971,139.89308 527.59251,139.7596 L 527.59251,135.66814 C 526.42581,135.80162 525.57881,135.9351 525.18961,135.9351 C 520.32071,135.9351 520.32071,133.25971 520.32071,131.18204 L 520.32071,111.10203 L 527.46461,111.10203 L 527.46461,107.07441 L 520.32071,107.07441 L 520.32071,98.3634 L 514.98141,100.76602 L 514.98141,107.07441 L 509.58991,107.07441 z "
     style="fill:#000000;fill-rule:nonzero;stroke:none"
     id="path7573" />
  <path
     d="M 530.62951,148.15256 L 534.79071,148.15256 L 540.70431,133.13317 L 534.01271,133.13317 L 530.62951,148.15256 z "
     style="fill:#000000;fill-rule:nonzero;stroke:none"
     id="path7577" />
  <path
     d="M 584.49841,92.96673 L 584.49841,133.13258 L 584.37081,133.13258 L 566.10741,92.96673 L 557.65751,92.96673 L 557.65751,139.89367 L 562.98501,139.89367 L 562.98501,99.20547 L 563.11841,99.20547 L 581.64311,139.89367 L 589.83761,139.89367 L 589.83761,92.96673 L 584.49841,92.96673 z "
     style="fill:#000000;fill-rule:nonzero;stroke:none"
     id="path7581" />
  <path
     d="M 615.55971,123.58182 C 616.08221,134.17317 612.04891,136.19278 608.80451,136.19278 C 605.22981,136.19278 603.66841,133.33165 603.66841,130.14554 C 603.66841,123.18718 610.48761,123.64565 615.55971,123.58182 z M 615.69341,139.89538 L 621.54311,139.89538 C 621.15431,137.36506 620.89311,134.69548 620.89311,132.0955 L 620.89311,116.30424 C 620.89311,110.77354 618.68201,106.42092 610.23211,106.42092 C 603.27381,106.42092 599.37971,108.95706 599.11851,116.30424 L 604.89871,116.30424 C 604.57391,112.85117 606.46561,110.45436 610.03481,110.45436 C 615.75701,110.45436 615.69341,115.1958 615.55971,119.54842 C 608.09091,119.35687 598.33511,119.80376 598.33511,129.75672 C 598.33511,136.06511 600.35461,140.54539 607.30751,140.54539 C 611.39891,140.54539 613.94061,138.92042 615.55971,135.14813 L 615.69341,135.14813 L 615.69341,139.89538 z "
     style="fill:#000000;fill-rule:evenodd;stroke:none"
     id="path7585" />
  <path
     d="M 626.15821,107.07441 L 626.15821,111.10203 L 631.54971,111.10203 L 631.54971,134.4378 C 631.54971,138.20427 633.83051,140.28771 638.89681,140.28771 C 640.65511,140.28771 642.40791,139.89308 644.16041,139.7596 L 644.16041,135.66814 C 642.99401,135.80162 642.14671,135.9351 641.75791,135.9351 C 636.88891,135.9351 636.88891,133.25971 636.88891,131.18204 L 636.88891,111.10203 L 644.03291,111.10203 L 644.03291,107.07441 L 636.88891,107.07441 L 636.88891,98.3634 L 631.54971,100.76602 L 631.54971,107.07441 L 626.15821,107.07441 z "
     style="fill:#000000;fill-rule:nonzero;stroke:none"
     id="path7589" />
  <path
     d="M 667.22531,128.84848 C 667.22531,134.30373 663.64441,136.45104 660.78331,136.45104 C 657.01711,136.45104 655.19491,133.78143 655.19491,129.82344 L 655.19491,107.07382 L 649.86151,107.07382 L 649.86151,132.09843 C 649.86151,137.68135 652.98931,140.54828 658.70561,140.54828 C 662.14741,140.54828 665.26391,138.9175 667.02221,135.93451 L 667.22531,135.93451 L 667.22531,139.8925 L 672.87221,139.8925 C 672.68041,137.61751 672.55291,135.34256 672.55291,133.07339 L 672.55291,107.07382 L 667.22531,107.07382 L 667.22531,128.84848 z "
     style="fill:#000000;fill-rule:nonzero;stroke:none"
     id="path7593" />
  <path
     d="M 687.37181,107.07441 L 682.04431,107.07441 L 682.04431,139.89308 L 687.37181,139.89308 L 687.37181,120.52685 C 687.37181,116.10462 688.86931,111.61853 694.78291,111.61853 C 695.75821,111.61853 696.66331,111.82165 697.63851,111.94932 L 697.63851,106.41862 C 692.44441,106.41862 689.71081,107.00476 687.49981,112.00735 L 687.37181,112.00735 L 687.37181,107.07441 z "
     style="fill:#000000;fill-rule:nonzero;stroke:none"
     id="path7597" />
  <path
     d="M 724.25481,130.53495 C 724.25481,120.52977 707.87171,120.65744 707.87171,114.87136 C 707.87171,112.01027 710.08861,110.45495 712.94961,110.45495 C 716.32741,110.45495 718.14381,112.27143 718.07991,115.71288 L 723.99391,115.71288 C 724.44621,109.2188 719.44981,106.42151 713.58801,106.42151 C 704.36641,106.42151 702.28291,111.95221 702.28291,115.38789 C 702.28291,125.20156 718.66641,125.33505 718.66641,131.18496 C 718.66641,134.56839 716.19951,136.19336 713.00771,136.19336 C 707.61631,136.19336 707.55271,131.7711 707.55271,129.88498 L 701.50531,129.88498 C 701.31381,137.42367 705.73591,140.54594 712.81631,140.54594 C 719.32191,140.54594 724.25481,137.74869 724.25481,130.53495 z "
     style="fill:#000000;fill-rule:nonzero;stroke:none"
     id="path7601" />
  <path
     d="M 753.68451,117.5967 C 754.00941,110.25529 750.17341,106.41921 743.60971,106.41921 C 732.23481,106.41921 731.12611,114.34676 731.12611,123.96892 C 731.12611,138.46601 736.65681,140.54364 743.60971,140.54364 C 747.24831,140.54364 754.14271,138.20482 753.94541,128.97151 L 748.35111,128.97151 C 748.54811,134.88523 744.84581,136.19102 743.60971,136.19102 C 738.08451,136.19102 736.72661,132.35494 736.72661,121.69394 C 736.72661,112.72178 739.51791,110.77178 743.60971,110.77178 C 745.62931,110.77178 748.29301,112.21106 748.15931,117.5967 L 753.68451,117.5967 z "
     style="fill:#000000;fill-rule:nonzero;stroke:none"
     id="path7605" />
  <path
     d="M 785.01721,139.89308 L 785.01721,116.62112 C 785.01721,109.21587 781.90071,106.41862 776.30651,106.41862 C 772.01741,106.41862 769.55091,107.46323 767.39801,111.29354 L 767.13671,111.29354 L 767.13671,92.96614 L 761.81501,92.96614 L 761.81501,139.89308 L 767.13671,139.89308 L 767.13671,120.59072 C 767.13671,115.06579 768.50621,110.77124 773.83421,110.77124 C 778.38381,110.77124 779.68391,113.63813 779.68391,117.66576 L 779.68391,139.89308 L 785.01721,139.89308 z "
     style="fill:#000000;fill-rule:nonzero;stroke:none"
     id="path7609" />
  <path
     d="M 811.27981,128.84848 C 811.27981,134.30373 807.69891,136.45104 804.84361,136.45104 C 801.07161,136.45104 799.24941,133.78143 799.24941,129.82344 L 799.24941,107.07382 L 793.92141,107.07382 L 793.92141,132.09843 C 793.92141,137.68135 797.04381,140.54828 802.76601,140.54828 C 806.20771,140.54828 809.32421,138.9175 811.08251,135.93451 L 811.27981,135.93451 L 811.27981,139.8925 L 816.93221,139.8925 C 816.73481,137.61751 816.61321,135.34256 816.61321,133.07339 L 816.61321,107.07382 L 811.27981,107.07382 L 811.27981,128.84848 z "
     style="fill:#000000;fill-rule:nonzero;stroke:none"
     id="path7613" />
  <path
     d="M 821.42131,107.07441 L 821.42131,111.10203 L 826.81281,111.10203 L 826.81281,134.4378 C 826.81281,138.20427 829.09361,140.28771 834.15991,140.28771 C 835.91271,140.28771 837.67101,139.89308 839.42391,139.7596 L 839.42391,135.66814 C 838.25711,135.80162 837.40981,135.9351 837.02101,135.9351 C 832.14621,135.9351 832.14621,133.25971 832.14621,131.18204 L 832.14621,111.10203 L 839.29601,111.10203 L 839.29601,107.07441 L 832.14621,107.07441 L 832.14621,98.3634 L 826.81281,100.76602 L 826.81281,107.07441 L 821.42131,107.07441 z "
     style="fill:#000000;fill-rule:nonzero;stroke:none"
     id="path7617" />
  <path
     d="M 863.13571,107.07441 L 843.56631,107.07441 L 843.56631,111.42702 L 857.15231,111.42702 L 857.15231,111.55469 L 842.85231,134.88468 L 842.85231,139.89308 L 863.58811,139.89308 L 863.58811,135.54047 L 848.63851,135.54047 L 863.13571,111.94932 L 863.13571,107.07441 z "
     style="fill:#000000;fill-rule:nonzero;stroke:none"
     id="path7621" />
  <path
     d="M 255.88191,48.28693 L 262.25411,48.28693 C 268.36501,48.28693 272.97901,49.5811 272.97901,57.05596 C 272.97901,60.50326 270.70401,65.05319 264.33761,65.05319 L 255.88191,65.05319 L 255.88191,48.28693 z M 255.88191,28.52029 L 264.33761,28.52029 C 269.33411,28.52029 271.55131,31.7064 271.55131,35.60632 C 271.55131,40.15625 269.27051,43.01738 264.58721,43.08121 L 255.88191,43.08121 L 255.88191,28.52029 z M 264.97601,70.2531 C 270.31521,70.2531 279.08411,69.08659 279.08411,57.05596 C 279.08411,50.62571 276.16491,46.59231 269.46781,45.80886 L 269.46781,45.48964 C 275.50901,44.12582 277.52891,40.2259 277.52891,34.37598 C 277.52891,33.46486 277.26771,30.66757 275.64271,28.13724 C 273.88991,25.5315 271.67891,23.32616 265.17911,23.32616 L 249.90431,23.32616 L 249.90431,70.2531 L 264.97601,70.2531 z "
     style="fill:#000000;fill-rule:evenodd;stroke:none"
     id="path7625" />
  <path
     d="M 304.21771,59.20674 C 304.21771,64.66203 300.63721,66.8093 297.77611,66.8093 C 294.00951,66.8093 292.18731,64.13969 292.18731,60.18174 L 292.18731,37.43212 L 286.85971,37.43212 L 286.85971,62.45669 C 286.85971,68.03965 289.98171,70.90654 295.69841,70.90654 C 299.13971,70.90654 302.26211,69.2758 304.01451,66.29281 L 304.21771,66.29281 L 304.21771,70.25076 L 309.86461,70.25076 C 309.67311,67.97581 309.54521,65.70082 309.54521,63.43169 L 309.54521,37.43212 L 304.21771,37.43212 L 304.21771,59.20674 z "
     style="fill:#000000;fill-rule:nonzero;stroke:none"
     id="path7629" />
  <path
     d="M 342.30831,70.25134 L 342.30831,47.50172 C 342.30831,41.00183 340.55001,36.77688 333.52771,36.77688 C 329.30261,36.77688 326.83611,37.9492 324.75851,41.6518 L 324.49761,41.6518 L 324.49761,37.4327 L 318.84481,37.4327 C 319.03631,39.70765 319.16971,41.97683 319.16971,44.25758 L 319.16971,70.25134 L 324.49761,70.25134 L 324.49761,50.8155 C 324.49761,46.33521 325.33911,41.1295 331.19471,41.1295 C 335.73881,41.1295 336.97491,43.99643 336.97491,47.50172 L 336.97491,70.25134 L 342.30831,70.25134 z "
     style="fill:#000000;fill-rule:nonzero;stroke:none"
     id="path7633" />
  <path
     d="M 368.49991,52.50895 C 368.49991,59.13651 368.49991,66.55338 362.52231,66.55338 C 355.83111,66.55338 355.83111,59.39766 355.83111,54.45891 C 355.83111,45.68407 356.60871,41.13414 362.32501,41.13414 C 368.23901,41.13414 368.49991,48.15633 368.49991,52.50895 z M 368.49991,40.74532 L 368.30841,40.74532 C 366.48621,38.14534 364.21121,36.78152 361.09471,36.78152 C 350.49771,36.78152 350.23641,46.20056 350.23641,54.39507 C 350.23641,68.82833 355.56981,70.90599 360.83341,70.90599 C 364.28101,70.90599 366.55011,69.40869 368.37241,66.35025 L 368.49991,66.35025 L 368.49991,70.25017 L 373.83331,70.25017 L 373.83331,23.32327 L 368.49991,23.32327 L 368.49991,40.74532 z "
     style="fill:#000000;fill-rule:evenodd;stroke:none"
     id="path7637" />
  <path
     d="M 387.61381,51.53512 C 387.67781,42.43529 390.47491,40.81028 393.85271,40.81028 C 397.75261,40.81028 400.42181,41.97679 400.42181,51.53512 L 387.61381,51.53512 z M 406.07461,55.56275 L 406.07461,52.77127 C 406.07461,41.91295 403.73021,36.77688 394.37481,36.77688 C 382.99991,36.77688 381.89751,44.70443 381.89751,54.3266 C 381.89751,68.82368 387.41651,70.90132 394.37481,70.90132 C 401.26341,70.90132 405.74981,67.59334 405.81331,60.31 L 399.96361,60.31 C 399.76631,63.61797 397.88011,66.54874 394.24731,66.54874 C 390.08611,66.54874 387.61381,64.72645 387.61381,55.56275 L 406.07461,55.56275 z "
     style="fill:#000000;fill-rule:evenodd;stroke:none"
     id="path7641" />
  <path
     d="M 435.45951,60.89325 C 435.45951,50.88803 419.07601,51.0157 419.07601,45.22966 C 419.07601,42.36853 421.28741,40.81321 424.14271,40.81321 C 427.52591,40.81321 429.34821,42.62969 429.27871,46.07118 L 435.19821,46.07118 C 435.65101,39.57706 430.64241,36.77981 424.79821,36.77981 C 415.56491,36.77981 413.48171,42.31051 413.48171,45.74615 C 413.48171,55.55986 429.86481,55.69334 429.86481,61.54322 C 429.86481,64.92665 427.39841,66.55162 424.21211,66.55162 C 418.81511,66.55162 418.75121,62.12936 418.75121,60.24324 L 412.70381,60.24324 C 412.51231,67.78196 416.92891,70.90424 424.01481,70.90424 C 430.51491,70.90424 435.45951,68.10695 435.45951,60.89325 z "
     style="fill:#000000;fill-rule:nonzero;stroke:none"
     id="path7645" />
  <path
     d="M 465.20981,70.25134 L 465.20981,48.1575 C 465.20981,46.92139 465.46521,43.67141 467.03201,42.36565 C 468.45971,41.20495 469.04581,41.1295 471.05951,41.1295 C 475.34861,41.1295 476.25951,44.18794 476.25951,47.50172 L 476.25951,70.25134 L 481.59291,70.25134 L 481.59291,45.29638 C 481.59291,37.56038 476.06221,36.77688 472.62081,36.77688 C 469.63191,36.77688 466.64331,37.49073 464.82101,41.00183 C 463.58491,38.01303 460.13771,36.77688 457.14871,36.77688 C 453.31861,36.77688 450.52101,38.01303 448.96011,41.52413 L 448.82671,41.52413 L 448.82671,37.4327 L 443.17391,37.4327 C 443.37131,39.70765 443.49881,41.97683 443.49881,44.25758 L 443.49881,70.25134 L 448.82671,70.25134 L 448.82671,48.1575 C 448.82671,46.92139 449.08761,44.96558 450.06251,43.34061 C 450.84631,42.1045 453.05731,41.1295 454.68221,41.1295 C 458.97681,41.1295 459.87641,44.18794 459.87641,47.50172 L 459.87641,70.25134 L 465.20981,70.25134 z "
     style="fill:#000000;fill-rule:nonzero;stroke:none"
     id="path7649" />
  <path
     d="M 496.33621,37.4327 L 491.00831,37.4327 L 491.00831,70.25134 L 496.33621,70.25134 L 496.33621,37.4327 z M 490.68351,29.04084 L 496.66111,29.04084 L 496.66111,23.32444 L 490.68351,23.32444 L 490.68351,29.04084 z "
     style="fill:#000000;fill-rule:evenodd;stroke:none"
     id="path7653" />
  <path
     d="M 529.14961,70.25134 L 529.14961,47.50172 C 529.14961,41.00183 527.40261,36.77688 520.38031,36.77688 C 516.14971,36.77688 513.68911,37.9492 511.60561,41.6518 L 511.34431,41.6518 L 511.34431,37.4327 L 505.69201,37.4327 C 505.87761,39.70765 506.01101,41.97683 506.01101,44.25758 L 506.01101,70.25134 L 511.34431,70.25134 L 511.34431,50.8155 C 511.34431,46.33521 512.19171,41.1295 518.04181,41.1295 C 522.58591,41.1295 523.82211,43.99643 523.82211,47.50172 L 523.82211,70.25134 L 529.14961,70.25134 z "
     style="fill:#000000;fill-rule:nonzero;stroke:none"
     id="path7657" />
  <path
     d="M 543.91011,37.4327 L 538.57671,37.4327 L 538.57671,70.25134 L 543.91011,70.25134 L 543.91011,37.4327 z M 538.25151,29.04084 L 544.22911,29.04084 L 544.22911,23.32444 L 538.25151,23.32444 L 538.25151,29.04084 z "
     style="fill:#000000;fill-rule:evenodd;stroke:none"
     id="path7661" />
  <path
     d="M 574.19311,60.89325 C 574.19311,50.88803 557.81001,51.0157 557.81001,45.22966 C 557.81001,42.36853 560.02101,40.81321 562.87621,40.81321 C 566.25991,40.81321 568.08211,42.62969 568.01271,46.07118 L 573.93221,46.07118 C 574.38451,39.57706 569.37641,36.77981 563.53211,36.77981 C 554.29881,36.77981 552.22121,42.31051 552.22121,45.74615 C 552.22121,55.55986 568.60471,55.69334 568.60471,61.54322 C 568.60471,64.92665 566.13241,66.55162 562.94601,66.55162 C 557.54871,66.55162 557.49061,62.12936 557.49061,60.24324 L 551.43781,60.24324 C 551.25211,67.78196 555.66291,70.90424 562.75461,70.90424 C 569.24851,70.90424 574.19311,68.10695 574.19311,60.89325 z "
     style="fill:#000000;fill-rule:nonzero;stroke:none"
     id="path7665" />
  <path
     d="M 577.75181,37.4327 L 577.75181,41.46029 L 583.14331,41.46029 L 583.14331,64.79609 C 583.14331,68.56253 585.41831,70.64597 590.49041,70.64597 C 592.24321,70.64597 593.99571,70.25134 595.75431,70.11786 L 595.75431,66.0264 C 594.59351,66.15988 593.73481,66.29336 593.35181,66.29336 C 588.47671,66.29336 588.47671,63.61797 588.47671,61.54034 L 588.47671,41.46029 L 595.62641,41.46029 L 595.62641,37.4327 L 588.47671,37.4327 L 588.47671,28.72166 L 583.14331,31.11851 L 583.14331,37.4327 L 577.75181,37.4327 z "
     style="fill:#000000;fill-rule:nonzero;stroke:none"
     id="path7669" />
  <path
     d="M 605.81511,51.53512 C 605.87911,42.43529 608.67041,40.81028 612.05401,40.81028 C 615.95391,40.81028 618.61771,41.97679 618.61771,51.53512 L 605.81511,51.53512 z M 624.27591,55.56275 L 624.27591,52.77127 C 624.27591,41.91295 621.93731,36.77688 612.57031,36.77688 C 601.19581,36.77688 600.09301,44.70443 600.09301,54.3266 C 600.09301,68.82368 605.61781,70.90132 612.57031,70.90132 C 619.45921,70.90132 623.94521,67.59334 624.01501,60.31 L 618.16491,60.31 C 617.96181,63.61797 616.08731,66.54874 612.44861,66.54874 C 608.28161,66.54874 605.81511,64.72645 605.81511,55.56275 L 624.27591,55.56275 z "
     style="fill:#000000;fill-rule:evenodd;stroke:none"
     id="path7673" />
  <path
     d="M 637.46961,37.4327 L 632.14201,37.4327 L 632.14201,70.25134 L 637.46961,70.25134 L 637.46961,50.88515 C 637.46961,46.46288 638.96701,41.97683 644.88061,41.97683 C 645.85591,41.97683 646.76101,42.17991 647.73591,42.30758 L 647.73591,36.77688 C 642.54211,36.77688 639.80851,37.36306 637.60331,42.36565 L 637.46961,42.36565 L 637.46961,37.4327 z "
     style="fill:#000000;fill-rule:nonzero;stroke:none"
     id="path7677" />
  <path
     d="M 658.75401,37.4327 L 653.42061,37.4327 L 653.42061,70.25134 L 658.75401,70.25134 L 658.75401,37.4327 z M 653.10121,29.04084 L 659.07881,29.04084 L 659.07881,23.32444 L 653.10121,23.32444 L 653.10121,29.04084 z "
     style="fill:#000000;fill-rule:evenodd;stroke:none"
     id="path7681" />
  <path
     d="M 685.52271,59.20674 C 685.52271,64.66203 681.95351,66.8093 679.09241,66.8093 C 675.32001,66.8093 673.50361,64.13969 673.50361,60.18174 L 673.50361,37.43212 L 668.17021,37.43212 L 668.17021,62.45669 C 668.17021,68.03965 671.28671,70.90654 677.01471,70.90654 C 680.45601,70.90654 683.57251,69.2758 685.33081,66.29281 L 685.52271,66.29281 L 685.52271,70.25076 L 691.18091,70.25076 C 690.98361,67.97581 690.85611,65.70082 690.85611,63.43169 L 690.85611,37.43212 L 685.52271,37.43212 L 685.52271,59.20674 z "
     style="fill:#000000;fill-rule:nonzero;stroke:none"
     id="path7685" />
  <path
     d="M 722.11701,70.25134 L 722.11701,48.1575 C 722.11701,46.92139 722.37791,43.67141 723.94511,42.36565 C 725.37281,41.20495 725.95301,41.1295 727.97261,41.1295 C 732.26131,41.1295 733.16681,44.18794 733.16681,47.50172 L 733.16681,70.25134 L 738.50601,70.25134 L 738.50601,45.29638 C 738.50601,37.56038 732.97531,36.77688 729.53361,36.77688 C 726.53911,36.77688 723.55011,37.49073 721.72791,41.00183 C 720.49761,38.01303 717.05041,36.77688 714.06181,36.77688 C 710.23131,36.77688 707.43411,38.01303 705.87281,41.52413 L 705.73941,41.52413 L 705.73941,37.4327 L 700.08701,37.4327 C 700.28441,39.70765 700.41191,41.97683 700.41191,44.25758 L 700.41191,70.25134 L 705.73941,70.25134 L 705.73941,48.1575 C 705.73941,46.92139 706.00071,44.96558 706.97561,43.34061 C 707.75901,42.1045 709.97001,41.1295 711.59491,41.1295 C 715.87821,41.1295 716.78911,44.18794 716.78911,47.50172 L 716.78911,70.25134 L 722.11701,70.25134 z "
     style="fill:#000000;fill-rule:nonzero;stroke:none"
     id="path7689" />
  <path
     d="M 188.21491,255.9719 L 208.77671,255.9719 L 208.77671,372.04724 L 188.21491,372.04724 L 188.21491,255.9719 z "
     style="fill:#f7d100;fill-opacity:1;fill-rule:nonzero;stroke:none"
     id="path7693" />
  <path
     d="M 188.21491,139.49611 L 208.77671,139.49611 L 208.77671,255.9719 L 188.21491,255.9719 L 188.21491,139.49611 z "
     style="fill:#e3001b;fill-opacity:1;fill-rule:nonzero;stroke:none"
     id="path7697" />
  <path
     d="M 188.21491,23.83107 L 208.77671,23.83107 L 208.77671,139.90061 L 188.21491,139.90061 L 188.21491,23.83107 z "
     style="fill:#000000;fill-rule:nonzero;stroke:none"
     id="path7701" />
  <path
     d="M 70.79775,139.92034 L 70.79775,139.92034 z M 70.80365,139.96678 L 70.80365,139.96678 z M 70.79225,139.97836 L 70.79225,139.97836 z M 70.79225,139.89714 L 70.79225,139.89714 z M 124.07395,43.45494 C 124.07395,36.84477 119.26265,31.61004 117.57375,30.13598 L 116.35515,30.41453 C 118.15445,32.61406 121.32865,36.28765 121.32865,41.16257 C 121.32865,50.74991 111.19025,59.08952 99.62385,59.24621 C 99.71085,60.22702 99.70495,61.09751 99.70495,61.84618 C 99.70495,63.21581 99.61805,64.5622 99.45545,65.86219 C 112.58275,65.62424 124.07395,54.95165 124.07395,43.45494 z M 105.97265,122.86391 C 100.36675,122.86391 99.15355,122.27778 97.67375,122.27778 C 96.72765,122.27778 95.82845,122.37062 95.82845,123.71124 C 95.82845,124.64561 96.87315,126.00362 97.82465,126.72324 C 99.13645,125.41167 100.95285,125.12728 103.87205,125.12728 C 105.23565,125.12728 107.09885,125.39424 107.92285,125.50452 C 107.80665,126.31118 107.64405,127.35001 107.64405,128.82411 C 107.64405,129.59594 107.66745,130.48968 107.66745,131.44147 C 107.66745,134.74945 107.18585,136.5079 106.03075,137.83109 C 106.28035,137.982 106.94795,138.12125 107.34255,138.12125 C 109.48965,138.12125 110.03525,137.02439 110.03525,131.45306 C 110.03525,129.77587 110.17445,128.21473 110.17445,127.81429 C 113.16925,130.10086 116.22765,134.1807 116.22765,137.13467 C 117.20845,136.63557 118.36305,135.1557 118.36305,134.04141 C 118.36305,132.03342 114.99735,129.03882 111.43395,125.42906 C 111.92725,125.3072 113.25035,124.92415 114.34145,124.92415 C 117.14445,124.92415 119.40775,125.39424 120.72535,126.94376 C 121.24755,126.38082 121.67685,124.67462 121.67685,123.70543 C 121.67685,122.03402 120.71365,122.09208 120.01725,122.09208 C 117.03405,122.09208 113.34905,122.55636 110.71415,122.99162 C 109.75095,121.70903 103.64545,113.44487 102.06105,109.04004 C 101.60285,108.87755 101.24875,108.74407 100.50005,108.74407 C 99.03195,108.74407 98.64895,109.77128 98.26565,111.17574 C 101.63755,115.26139 104.87615,119.70685 105.97265,122.86391 z M 72.52175,111.17574 C 72.14425,109.77128 71.76715,108.74407 70.29905,108.74407 C 69.53865,108.74407 69.19035,108.87755 68.74345,109.04004 C 67.14745,113.44487 61.04235,121.70903 60.07875,122.99162 C 57.45005,122.55636 53.75875,122.09208 50.78185,122.09208 C 50.07955,122.09208 49.11595,122.03402 49.11595,123.70543 C 49.11595,124.67462 49.54575,126.38082 50.07375,126.94376 C 51.38515,125.39424 53.65465,124.92415 56.45175,124.92415 C 57.54285,124.92415 58.86015,125.3072 59.35345,125.42906 C 55.79005,129.03882 52.42985,132.03342 52.42985,134.04141 C 52.42985,135.1557 53.59065,136.63557 54.56555,137.13467 C 54.56555,134.1807 57.62395,130.10086 60.61885,127.81429 C 60.61885,128.21473 60.75805,129.77587 60.75805,131.45306 C 60.75805,137.02439 61.30945,138.12125 63.45065,138.12125 C 63.84525,138.12125 64.50705,137.982 64.76245,137.83109 C 63.61325,136.5079 63.11995,134.74945 63.11995,131.44147 C 63.11995,130.48968 63.16055,129.59594 63.16055,128.82411 C 63.16055,127.35001 62.98665,126.31118 62.87625,125.50452 C 63.69435,125.39424 65.55755,125.12728 66.92125,125.12728 C 69.84045,125.12728 71.65095,125.41167 72.97405,126.72324 C 73.92015,126.00362 74.97065,124.64561 74.97065,123.71124 C 74.97065,122.37062 74.06515,122.27778 73.11365,122.27778 C 71.63385,122.27778 70.42655,122.86391 64.82015,122.86391 C 65.92295,119.70685 69.15565,115.26139 72.52175,111.17574 z M 49.47005,41.16257 C 49.47005,36.28765 52.64465,32.61406 54.43805,30.41453 L 53.23075,30.13598 C 51.52475,31.61004 46.72515,36.84477 46.72515,43.45494 C 46.72515,55.03288 58.37855,65.78092 71.62215,65.868 C 71.48295,64.60861 71.40145,63.27384 71.40145,61.84618 C 71.40145,60.95245 71.44195,60.0761 71.51765,59.25783 C 59.80615,59.25783 49.47005,50.84276 49.47005,41.16257 z M 85.06885,32.24844 C 85.67215,30.86141 86.48475,29.21324 86.48475,27.39672 C 86.48475,22.37674 82.32355,19.9857 76.75235,19.9857 C 73.89125,19.9857 72.44025,20.90845 72.44025,21.837 C 72.44025,22.76556 73.38625,24.80256 73.75205,25.43514 C 74.77915,24.97667 76.64195,24.43698 77.72135,24.43698 C 81.54605,24.43698 84.40125,28.71995 85.06885,32.24844 z M 87.80785,25.82981 C 91.06365,26.46239 93.28635,22.30128 90.18735,21.55842 C 90.61675,22.93386 88.53325,23.90305 88.53325,23.90305 C 88.53325,23.90305 87.73805,22.06333 88.77145,21.01292 C 86.87355,20.09017 86.39785,21.21604 86.35685,22.38251 C 87.10555,23.38071 87.58755,24.53563 87.80785,25.82981 z M 98.34715,54.34227 C 98.86935,54.3771 99.36845,54.4003 99.89055,54.4003 C 109.05445,54.4003 118.15445,48.47496 118.15445,40.8724 C 118.15445,36.82157 116.33215,33.98946 114.08015,30.84979 C 112.75705,31.06454 111.55565,31.19221 110.60965,31.19221 C 106.44885,31.19221 104.19685,28.96948 104.03465,26.78157 C 104.03465,24.80837 105.63615,23.31687 108.12015,23.31687 C 111.97955,23.31687 119.00725,26.93244 126.09345,26.93244 C 125.39705,27.46055 124.23655,28.01191 122.83775,28.53421 C 126.98725,32.27745 129.76725,37.28585 130.82325,42.64248 L 141.68145,60.01808 C 143.50375,62.92561 147.36305,68.62465 153.16675,73.07589 C 146.14445,73.07589 141.48415,73.23838 135.54745,63.84835 L 129.98755,54.94584 C 129.57535,56.09492 129.06495,57.22079 128.47295,58.31765 L 139.53435,76.03567 C 141.37965,78.96644 145.18675,84.62481 151.02515,89.09929 C 144.00285,89.09929 139.35425,89.26759 133.41175,79.87175 L 123.88245,64.62023 C 123.16845,65.37467 122.41975,66.11753 121.62465,66.83138 L 135.07135,88.34485 C 136.91705,91.29301 140.71825,96.92237 146.56255,101.40266 C 139.53435,101.40266 134.87985,101.57096 128.93705,92.17512 L 115.83885,71.19557 C 114.97395,71.74689 114.09185,72.26923 113.18055,72.7741 L 129.16945,98.36746 C 131.01465,101.30981 134.81005,106.94498 140.66015,111.42527 C 133.63785,111.42527 128.97795,111.58776 123.04675,102.19192 L 106.57635,75.83835 C 105.60145,76.21559 104.60905,76.56959 103.60485,76.88877 L 122.21655,106.68383 C 124.02755,109.57397 127.92155,115.29617 133.69605,119.73587 C 126.67955,119.73587 122.01925,119.89836 116.08845,110.50252 L 96.25195,78.7575 L 95.64825,78.86197 C 95.10855,80.57979 94.73155,82.18156 94.73155,83.78333 C 94.73155,93.75369 101.27765,102.56335 109.14145,109.36503 C 108.63065,109.58559 107.75435,109.66681 106.94795,109.66681 C 105.32845,109.66681 104.27835,109.57397 103.54135,109.44629 C 105.36945,113.58997 109.27485,118.92336 111.24795,121.69164 C 113.82475,121.23313 117.56835,120.86751 120.01725,120.86751 C 122.57645,120.86751 122.86075,122.37062 122.86075,123.70543 C 122.86075,126.03844 121.76965,127.90136 120.51055,128.93435 C 120.03475,127.73306 119.07705,126.14291 114.34145,126.14291 L 113.85985,126.16611 C 115.25235,127.70982 119.58785,131.21515 119.58785,134.04141 C 119.58785,135.90433 117.53325,138.70743 114.82895,138.70743 C 114.99735,138.10386 114.97395,137.54673 114.97395,137.13467 C 114.97395,134.8481 112.94855,132.17853 111.23665,130.30979 C 111.28305,130.86692 111.25965,130.80889 111.25965,131.45306 C 111.25965,136.85613 110.77805,139.34001 107.34255,139.34001 C 105.66545,139.34001 104.49865,138.41727 104.09815,138.14449 C 106.32675,136.08426 106.44295,134.47667 106.44295,131.44147 L 106.42545,128.82411 C 106.41955,128.12769 106.43125,127.21653 106.53575,126.54912 C 105.31135,126.38082 104.81805,126.38663 103.87205,126.38663 C 103.87205,126.38663 98.99135,125.99781 97.82465,128.53391 C 96.50155,127.32681 94.58645,125.60899 94.58645,123.71124 C 94.58645,122.46347 95.17255,121.05324 97.67375,121.05324 C 98.62555,121.05324 101.62005,121.63938 104.12155,121.63938 C 103.45395,120.14208 100.45365,115.76626 97.87105,112.58596 C 97.47635,113.8163 96.86145,115.15692 95.49735,116.24216 C 95.31175,114.19935 94.11615,107.74587 90.92445,103.97362 C 90.55275,106.52134 90.04815,109.1387 90.04815,114.65201 C 90.04815,128.08125 93.28045,137.99939 100.13475,139.89133 C 99.24095,141.45246 97.36055,142.8453 95.39875,142.8453 C 92.89175,142.8453 91.52805,140.00742 90.13515,137.33199 C 89.40985,139.31096 87.40745,144.14528 85.39365,144.14528 C 83.38585,144.14528 81.38345,139.31096 80.66395,137.33199 C 79.27105,140.00742 77.90155,142.8453 75.38865,142.8453 C 73.43855,142.8453 71.54645,141.45246 70.66435,139.89133 C 77.51235,137.99939 80.74505,128.08125 80.74505,114.65201 C 80.74505,109.1387 80.24595,106.52134 79.86885,103.97362 C 76.67665,107.74587 75.47565,114.19935 75.29005,116.24216 C 73.93185,115.15692 73.31645,113.8163 72.92765,112.58596 C 70.33375,115.76626 67.34475,120.14208 66.66585,121.63938 C 69.17865,121.63938 72.16185,121.05324 73.11365,121.05324 C 75.62655,121.05324 76.21845,122.46347 76.21845,123.71124 C 76.21845,125.60899 74.29175,127.32681 72.97405,128.53391 C 71.79605,125.99781 66.92125,126.38663 66.92125,126.38663 C 65.97525,126.38663 65.48775,126.38082 64.25745,126.54912 C 64.36195,127.21653 64.38495,128.12769 64.36785,128.82411 L 64.35025,131.44147 C 64.35025,134.47667 64.46645,136.08426 66.69505,138.14449 C 66.30005,138.41727 65.13365,139.34001 63.45065,139.34001 C 60.02105,139.34001 59.52775,136.85613 59.52775,131.45306 C 59.52775,130.80889 59.51015,130.86692 59.55655,130.30979 C 57.84465,132.17853 55.82515,134.8481 55.82515,137.13467 C 55.82515,137.54673 55.79585,138.10386 55.95845,138.70743 C 53.26005,138.70743 51.21125,135.90433 51.21125,134.04141 C 51.21125,131.21515 55.54635,127.70982 56.92755,126.16611 L 56.45175,126.14291 C 51.71615,126.14291 50.75265,127.73306 50.28855,128.93435 C 49.01735,127.90136 47.93205,126.03844 47.93205,123.70543 C 47.93205,122.37062 48.21675,120.86751 50.78185,120.86751 C 53.23665,120.86751 56.97395,121.23313 59.54485,121.69164 C 61.51805,118.92336 65.42385,113.58997 67.25195,109.44629 C 66.51495,109.57397 65.47025,109.66681 63.85115,109.66681 C 63.03885,109.66681 62.15645,109.58559 61.66315,109.36503 C 69.51525,102.56335 76.06175,93.75369 76.06175,83.78333 C 76.06175,82.18156 75.69015,80.57979 75.14455,78.86197 L 74.54715,78.7575 L 54.71065,110.50252 C 48.77365,119.89836 44.11365,119.73587 37.09725,119.73587 C 42.87755,115.29617 46.75985,109.57397 48.57045,106.68383 L 67.18835,76.88877 C 66.18425,76.56959 65.19765,76.21559 64.22275,75.83835 L 47.75235,102.19192 C 41.81525,111.58776 37.14945,111.42527 30.13895,111.42527 C 35.98275,106.94498 39.77275,101.30981 41.61795,98.36746 L 57.61225,72.7741 C 56.70135,72.26923 55.81925,71.74689 54.95435,71.19557 L 41.84995,92.17512 C 35.91335,101.57096 31.25885,101.40266 24.23655,101.40266 C 30.08085,96.92237 33.87625,91.29301 35.72185,88.34485 L 49.16235,66.83138 C 48.37895,66.11753 47.61895,65.37467 46.91075,64.62023 L 37.38735,79.87175 C 31.44445,89.26759 26.79005,89.09929 19.76815,89.09929 C 25.60065,84.62481 29.41325,78.96644 31.25885,76.03567 L 42.32025,58.31765 C 41.73415,57.22079 41.22335,56.09492 40.80565,54.94584 L 35.23985,63.84835 C 29.30875,73.23838 24.64875,73.07589 17.63235,73.07589 C 23.44145,68.62465 27.28915,62.92561 29.11725,60.01808 L 39.97005,42.64248 C 41.02605,37.28585 43.80015,32.27745 47.94965,28.53421 C 46.56255,28.01191 45.40205,27.46055 44.69975,26.93244 C 51.78565,26.93244 58.81375,23.32269 62.66725,23.32269 C 65.16295,23.32269 66.75275,24.80837 66.75275,26.78157 C 66.59645,28.96948 64.33855,31.19221 60.18325,31.19221 C 59.24305,31.19221 58.04205,31.06454 56.71305,30.84979 C 54.46695,33.98946 52.64465,36.82157 52.64465,40.8724 C 52.64465,48.47496 61.73295,54.4003 70.91395,54.4003 C 71.43065,54.4003 71.92395,54.3771 72.44025,54.34227 C 74.25665,48.1848 78.12775,44.14555 81.21535,40.19919 C 77.51235,38.84699 73.38045,35.33008 73.38045,33.73412 C 73.85065,33.46135 80.94825,35.68989 81.68525,35.89301 C 81.83615,35.93365 81.98705,35.93946 82.15555,35.89301 C 83.02595,35.63186 83.74535,34.3667 83.74535,34.23903 C 82.98535,34.11136 78.53405,33.5368 75.48735,32.42836 C 73.17725,31.58684 72.00505,30.04891 72.00505,29.46858 C 72.74795,29.34672 75.56255,30.82659 79.70035,30.82659 C 81.22665,30.82659 81.52845,30.76275 83.04345,30.57702 C 81.98125,28.03511 79.97335,25.88783 77.72135,25.88783 C 76.81045,25.88783 74.82555,26.45077 73.16555,27.28648 C 72.01095,25.4932 70.99505,23.13118 70.99505,21.837 C 70.99505,20.3165 72.49835,18.52903 76.75235,18.52903 C 77.93625,18.52903 79.04445,18.6335 80.07785,18.82501 C 80.90765,18.98169 81.60415,19.16739 82.35285,19.4634 C 82.29475,19.35893 82.25965,19.13256 82.25965,18.92366 C 82.25965,18.33749 82.79385,17.71653 84.79005,17.71653 C 88.28365,17.71653 91.87045,18.86564 96.26365,18.86564 C 97.40115,18.86564 98.17285,18.82501 98.83455,18.54642 C 98.55035,19.42277 97.31415,20.71113 96.18255,21.75574 C 96.87855,22.71334 98.69535,25.0173 98.69535,28.73734 C 98.69535,34.71493 94.76035,39.65368 94.76035,45.69511 C 94.76035,49.28743 97.52275,52.45615 98.34715,54.34227 z "
     style="fill:#000000;fill-rule:evenodd;stroke:none"
     id="path7705" />
</svg>
